<?xml version="1.0" standalone="no"?>
<!DOCTYPE svg PUBLIC "-//W3C//DTD SVG 20010904//EN"
 "http://www.w3.org/TR/2001/REC-SVG-20010904/DTD/svg10.dtd">
<svg version="1.0" xmlns="http://www.w3.org/2000/svg"
 width="200.000000pt" height="200.000000pt" viewBox="0 0 200.000000 200.000000"
 preserveAspectRatio="xMidYMid meet">
<metadata>
Created by potrace 1.14, written by Peter Selinger 2001-2017
</metadata>
<g transform="translate(0.000000,200.000000) scale(0.100000,-0.100000)"
fill="#000000" stroke="none">
<path d="M1478 1616 c-139 -49 -424 -229 -673 -422 -159 -124 -425 -382 -508
-494 -54 -72 -107 -174 -107 -205 0 -8 11 -26 24 -42 l24 -28 74 19 c68 17
134 44 126 50 -1 2 -31 -1 -66 -7 -119 -20 -156 19 -108 118 46 92 142 204
334 387 277 263 741 572 907 604 44 8 81 -10 93 -44 22 -64 -63 -187 -273
-397 -200 -200 -283 -270 -325 -277 -23 -3 -25 -9 -46 -148 -13 -80 -23 -153
-23 -163 -1 -28 32 -17 39 13 4 16 14 26 28 28 18 3 23 -3 28 -27 6 -28 22
-40 36 -26 4 5 -23 210 -37 273 -5 26 -1 35 27 60 179 158 237 212 333 307
133 133 225 253 255 331 21 57 21 58 2 83 -26 35 -79 38 -164 7z m-468 -902
c0 -32 -4 -44 -15 -44 -16 0 -19 19 -9 69 9 44 24 28 24 -25z"/>
<path d="M554 845 c-7 -19 -14 -44 -14 -55 0 -33 25 -83 54 -108 18 -15 26
-31 24 -45 -4 -32 -34 -34 -42 -3 -4 15 -14 26 -23 26 -13 0 -15 -8 -10 -40 6
-50 22 -70 53 -70 28 0 49 30 58 83 9 51 -9 102 -45 128 -29 20 -40 59 -16 59
7 0 18 -9 25 -20 15 -25 32 -18 32 13 0 34 -28 67 -56 67 -19 0 -28 -8 -40
-35z"/>
<path d="M716 853 c-3 -16 -13 -75 -21 -133 -8 -58 -17 -120 -20 -138 -5 -28
-3 -33 11 -30 10 2 21 14 24 28 9 37 54 35 58 -2 3 -26 25 -38 35 -20 6 10
-36 294 -46 310 -14 21 -35 13 -41 -15z m37 -130 c7 -39 -6 -65 -22 -47 -10
11 -2 84 9 84 4 0 10 -17 13 -37z"/>
<path d="M835 868 c-3 -8 -4 -81 -3 -163 3 -125 5 -150 18 -150 12 0 16 15 18
68 3 64 4 67 27 67 21 0 25 5 25 30 0 25 -4 30 -25 30 -21 0 -25 5 -25 30 0
27 3 30 31 30 28 0 30 2 27 33 -3 30 -6 32 -46 35 -28 2 -44 -1 -47 -10z"/>
<path d="M1097 873 c-4 -3 -7 -78 -7 -165 0 -147 1 -159 18 -156 14 3 17 14
17 62 0 80 18 81 36 4 10 -46 19 -64 33 -66 16 -3 17 1 11 40 -4 23 -12 58
-18 75 -8 25 -8 36 1 45 18 18 15 133 -4 152 -15 16 -75 22 -87 9z m67 -76 c8
-12 8 -22 0 -34 -21 -33 -34 -26 -34 17 0 43 13 50 34 17z"/>
<path d="M1239 876 c-2 -2 -3 -77 -1 -166 l3 -161 52 3 c50 3 52 4 52 33 0 27
-4 31 -35 35 -27 4 -36 10 -38 29 -4 28 11 45 41 46 18 0 22 6 22 30 0 24 -4
30 -22 30 -29 1 -47 19 -40 39 4 10 18 16 37 16 28 0 30 3 30 35 l0 35 -48 0
c-27 0 -51 -2 -53 -4z"/>
<path d="M1375 868 c-2 -7 -4 -80 -2 -163 l2 -150 50 0 50 0 0 35 c0 31 -3 35
-30 40 l-30 5 -5 119 c-3 83 -9 121 -17 124 -7 2 -15 -2 -18 -10z"/>
<path d="M1507 874 c-4 -4 -7 -79 -7 -166 l0 -158 55 0 55 0 0 34 c0 32 -3 35
-32 38 -29 3 -33 7 -36 36 -3 30 -1 32 27 32 29 0 31 3 31 36 0 28 -4 35 -17
33 -35 -3 -43 1 -43 25 0 21 6 25 33 28 28 3 32 6 32 33 0 28 -2 30 -45 33
-25 2 -49 0 -53 -4z"/>
<path d="M1666 865 c-33 -34 -42 -210 -13 -277 13 -32 21 -38 46 -38 35 0 50
22 54 76 2 44 -19 57 -33 20 -11 -29 -20 -32 -38 -14 -18 18 -16 140 3 164 14
19 15 19 34 -5 24 -32 44 -19 35 22 -12 60 -55 85 -88 52z"/>
<path d="M885 330 c3 -5 11 -10 16 -10 6 0 7 5 4 10 -3 6 -11 10 -16 10 -6 0
-7 -4 -4 -10z"/>
</g>
</svg>
